# xmcd
#
# Track frame offsets:
#	150
#	17847
#	33283
#	53968
#	67061
#
# Disc length: 1135 seconds
#
# Revision: 0
# Processed by: cddbd v1.5.2PL0 Copyright (c) Steve Scherf et al.
# Submitted via: audiograbber 1.83.01
#
DISCID=3f046d05
DTITLE=Adrian Ray - Pre-Release Music Sampler
DYEAR=2009
DGENRE=Country
TTITLE0=Broken Man
TTITLE1=Before I Die
TTITLE2=Cheatin
TTITLE3=Safest Place
TTITLE4=Know That I Love You
EXTD=
EXTT0=
EXTT1=
EXTT2=
EXTT3=
EXTT4=
PLAYORDER=
